<?xml version="1.0" encoding="utf-8"?>
<!-- Generator: Adobe Illustrator 23.0.1, SVG Export Plug-In . SVG Version: 6.00 Build 0)  -->
<svg version="1.1" id="Laag_1" xmlns="http://www.w3.org/2000/svg" xmlns:xlink="http://www.w3.org/1999/xlink" x="0px" y="0px"
	 viewBox="0 0 1920 1080" style="enable-background:new 0 0 1920 1080;" xml:space="preserve">
<style type="text/css">
	.st0{fill:#003D6A;}
</style>
<g>
	<path class="st0" d="M501.27,558.34c-12.27,17.73-32.75,29.35-55.93,29.35c-37.54,0-67.96-30.43-67.96-67.96
		c0-37.54,30.43-67.96,67.96-67.96c23.19,0,43.67,11.62,55.93,29.35l60.16-60.16c-27.97-32.81-69.59-53.66-116.09-53.66
		c-84.17,0-152.42,68.24-152.42,152.42c0,84.16,68.24,152.39,152.42,152.39c46.5,0,88.12-20.82,116.09-53.65L501.27,558.34z"/>
	<path class="st0" d="M891.58,583.04c0,2.03-1.28,2.81-2.81,3.57c-6.36,3.05-24.46,6.62-41.27,6.62
		c-48.92,0-62.17-22.67-62.17-69.81c0-47.13,13.25-70.07,62.17-70.07c16.81,0,34.91,3.57,41.27,6.64c1.53,0.77,2.81,1.52,2.81,3.81
		c0,0.27,0,0.77-0.25,1.28l-2.29,11.99c-0.52,2.03-1.79,2.79-3.57,2.79c-0.51,0-1.03,0-1.54-0.26c-5.59-1.52-18.84-5.09-31.85-5.09
		c-28.54,0-37.2,12.23-37.2,48.91c0,36.42,8.65,48.68,37.2,48.68c13.01,0,26.25-3.32,31.85-4.85h1.54c1.78,0,3.05,0.75,3.57,2.79
		l2.29,11.47C891.58,582.02,891.58,582.53,891.58,583.04"/>
	<path class="st0" d="M999.68,523.42l-37.44,6.13c-10.98,1.77-21.67,2.79-21.67,20.88c0,21.9,17.83,23.43,31.6,23.43
		c10.45,0,20.14-1.52,27.51-4.08V523.42z M1005.82,590.16c-8.42,2.05-20.39,3.57-34.41,3.57c-25.48,0-60.39-2.04-60.39-42.8
		c0-33.37,19.88-36.18,42.29-40l46.37-7.64v-9.43c0-7.64-0.5-13.25-7.88-16.3c-4.34-1.78-10.96-2.56-20.91-2.56
		c-18.35,0-36.44,5.09-45.1,7.14c-0.51,0-1.01,0.27-1.79,0.27c-1.01,0-2.29-0.53-2.54-2.05l-3.07-14.26v-0.77
		c0-2.29,1.54-3.06,2.81-3.57c7.14-2.54,29.82-8.41,54.79-8.41c18.1,0,30.07,2.56,37.98,6.88c13.25,7.39,14.52,19.36,14.52,32.87
		v70.57C1028.49,582.28,1023.4,586.09,1005.82,590.16"/>
	<path class="st0" d="M1263.22,590.42h-20.91c-2.54,0-4.08-1.52-4.08-3.82v-91.45c0-15.81-6.36-20.9-21.39-20.9
		c-18.61,0-37.71,5.34-37.71,5.34v107c0,2.3-1.52,3.82-3.82,3.82h-21.15c-2.29,0-3.83-1.52-3.83-3.82v-91.45
		c0-15.81-6.11-20.9-21.14-20.9c-18.59,0-38.22,5.34-38.22,5.34v107c0,2.3-1.53,3.82-3.82,3.82H1066c-2.29,0-4.06-1.52-4.06-3.82
		V478.32c0-9.68,3.32-13.5,17.06-17.83c13.01-3.81,36.18-7.14,52.49-7.14c16.05,0,27.27,3.33,34.4,9.19
		c9.94-3.83,35.16-9.19,54.01-9.19c31.08,0,47.13,8.67,47.13,37.98v95.28C1267.03,588.9,1265.76,590.42,1263.22,590.42"/>
	<path class="st0" d="M1366.78,453.35c-16.81,0-36.43,3.07-50.96,8.16c-11.97,4.08-15.03,8.16-15.03,20.38V640.1
		c0,2.29,1.28,3.82,3.57,3.82h1.02l20.64-4.08c2.55-0.51,3.81-1.78,3.81-4.58v-45.98c9.08,2.49,19.87,4.46,34.16,4.46
		c46.86,0,57.57-26.5,57.57-70.06C1421.57,482.65,1414.93,453.35,1366.78,453.35z M1358.13,573.1c-16.57,0-28.29-3.56-28.29-3.56
		v-2.96v-86.99c0,0,17.58-4.83,30.58-4.83c21.4,0,31.58,4.58,31.58,48.66C1392.01,562.66,1383.61,573.1,1358.13,573.1z"/>
	<path class="st0" d="M1532.21,523.42l-37.44,6.13c-10.96,1.77-21.66,2.79-21.66,20.88c0,21.9,17.83,23.43,31.6,23.43
		c10.44,0,20.13-1.52,27.51-4.08V523.42z M1538.34,590.16c-8.42,2.05-20.39,3.57-34.4,3.57c-25.47,0-60.37-2.04-60.37-42.8
		c0-33.37,19.86-36.18,42.27-40l46.37-7.64v-9.43c0-7.64-0.5-13.25-7.89-16.3c-4.34-1.78-10.96-2.56-20.9-2.56
		c-18.34,0-36.43,5.09-45.09,7.14c-0.5,0-1.01,0.27-1.77,0.27c-1.02,0-2.3-0.53-2.56-2.05l-3.06-14.26v-0.77
		c0-2.29,1.53-3.06,2.81-3.57c7.14-2.54,29.82-8.41,54.78-8.41c18.09,0,30.06,2.56,37.96,6.88c13.25,7.39,14.53,19.36,14.53,32.87
		v70.57C1561.02,582.28,1555.92,586.09,1538.34,590.16"/>
	<path class="st0" d="M1623.27,590.42h-20.9c-2.55,0-4.08-1.52-4.08-3.82V461.76c0-2.05,1.79-3.56,4.08-3.56h20.9
		c2.28,0,3.81,1.52,3.81,3.56V586.6C1627.08,588.9,1625.55,590.42,1623.27,590.42 M1621.73,437.31h-18.1c-3.3,0-5.34-1.78-5.34-5.1
		v-28.29c0-3.3,2.04-5.08,5.34-5.08h18.1c3.32,0,5.35,1.78,5.35,5.08v28.29C1627.08,435.53,1625.05,437.31,1621.73,437.31"/>
	<path class="st0" d="M622.87,450.12c37.53,0,67.96,30.43,67.96,67.96s-30.43,67.98-67.96,67.98c-37.54,0-67.96-30.44-67.96-67.98
		S585.33,450.12,622.87,450.12"/>
</g>
</svg>
